<svg xmlns="http://www.w3.org/2000/svg" width="2000" height="60" viewBox="0.00 -71.00 2393.20 72.20"><path d="M30-1.80Q23.70-1.80 18.25-4.10Q12.80-6.40 8.75-10.70Q4.70-15 2.35-21.10Q0-27.20 0-34.90Q0-42.50 2.35-48.65Q4.70-54.80 8.75-59.10Q12.80-63.40 18.25-65.70Q23.70-68 30-68Q36.30-68 41.75-65.70Q47.20-63.40 51.25-59.10Q55.30-54.80 57.65-48.65Q60-42.50 60-34.90Q60-27.20 57.65-21.10Q55.30-15 51.25-10.70Q47.20-6.40 41.75-4.10Q36.30-1.80 30-1.80M30-7.30Q35.10-7.30 39.45-9.20Q43.80-11.10 46.95-14.45Q50.10-17.80 51.90-22.30Q53.70-26.80 53.70-31.90L53.70-37.90Q53.70-43 51.90-47.50Q50.10-52 46.95-55.35Q43.80-58.70 39.45-60.60Q35.10-62.50 30-62.50Q24.90-62.50 20.55-60.60Q16.20-58.70 13.05-55.35Q9.90-52 8.10-47.50Q6.30-43 6.30-37.90L6.30-31.90Q6.30-26.80 8.10-22.30Q9.90-17.80 13.05-14.45Q16.20-11.10 20.55-9.20Q24.90-7.30 30-7.30M30.50-17.10Q23.20-17.10 19.15-21.95Q15.10-26.80 15.10-34.90Q15.10-43.10 19.20-47.90Q23.30-52.70 30.50-52.70Q35.30-52.70 38.35-50.50Q41.40-48.30 43.10-44.70L37.80-41.80Q36.70-44.20 35-45.60Q33.30-47 30.50-47Q26.60-47 24.45-44.45Q22.30-41.90 22.30-37.80L22.30-32.10Q22.30-27.90 24.40-25.35Q26.50-22.80 30.60-22.80Q33.60-22.80 35.40-24.30Q37.20-25.80 38.60-28.30L43.60-25.20Q41.90-21.70 38.65-19.40Q35.40-17.10 30.50-17.10M159.80 1.20Q150.40 1.20 144.40-2.25Q138.40-5.70 134.50-11.10L140.60-16.10Q144.70-11 149.25-8.50Q153.80-6 160.10-6Q167.70-6 171.70-9.50Q175.70-13 175.70-19.30Q175.70-24.40 172.80-27.25Q169.90-30.10 162.70-31.30L154.90-32.60Q149.80-33.50 146.35-35.30Q142.90-37.10 140.80-39.65Q138.70-42.20 137.80-45.25Q136.90-48.30 136.90-51.60Q136.90-61.20 143.20-66.10Q149.50-71 160.20-71Q168.60-71 174.35-68.20Q180.10-65.40 183.60-60.30L177.70-55.20Q174.80-59 170.70-61.40Q166.60-63.80 160.10-63.80Q153-63.80 149.20-60.80Q145.40-57.80 145.40-51.80Q145.40-47.10 148.25-44.15Q151.10-41.20 158.50-39.90L166-38.60Q171.10-37.70 174.60-35.90Q178.10-34.10 180.25-31.60Q182.40-29.10 183.30-26Q184.20-22.90 184.20-19.50Q184.20-9.80 177.85-4.30Q171.50 1.20 159.80 1.20M227.30 1.20Q214.50 1.20 208.25-8.10Q202-17.40 202-34.90Q202-52.40 208.25-61.70Q214.50-71 227.30-71Q232.10-71 235.60-69.70Q239.10-68.40 241.60-66.20Q244.10-64 245.80-61.25Q247.50-58.50 248.80-55.70L241.60-52.40Q240.70-54.70 239.50-56.75Q238.30-58.80 236.65-60.35Q235-61.90 232.75-62.80Q230.50-63.70 227.30-63.70Q219-63.70 214.95-57.40Q210.90-51.10 210.90-40.60L210.90-29.20Q210.90-18.70 214.95-12.40Q219-6.10 227.30-6.10Q230.50-6.10 232.75-7Q235-7.90 236.65-9.45Q238.30-11 239.50-13.05Q240.70-15.10 241.60-17.40L248.80-14.10Q247.50-11.20 245.80-8.50Q244.10-5.80 241.60-3.60Q239.10-1.40 235.60-0.10Q232.10 1.20 227.30 1.20M290 1.20Q283.60 1.20 279-1.25Q274.40-3.70 271.40-8.30Q268.40-12.90 267-19.60Q265.60-26.30 265.60-34.90Q265.60-43.40 267-50.15Q268.40-56.90 271.40-61.50Q274.40-66.10 279-68.55Q283.60-71 290-71Q296.40-71 301-68.55Q305.60-66.10 308.60-61.50Q311.60-56.90 313-50.15Q314.40-43.40 314.40-34.90Q314.40-26.30 313-19.60Q311.60-12.90 308.60-8.30Q305.60-3.70 301-1.25Q296.40 1.20 290 1.20M290-6.10Q294.20-6.10 297.10-7.75Q300-9.40 301.90-12.40Q303.80-15.40 304.65-19.65Q305.50-23.90 305.50-29.20L305.50-40.60Q305.50-45.80 304.65-50.10Q303.80-54.40 301.90-57.40Q300-60.40 297.10-62.05Q294.20-63.70 290-63.70Q285.80-63.70 282.90-62.05Q280-60.40 278.10-57.40Q276.20-54.40 275.35-50.10Q274.50-45.80 274.50-40.60L274.50-29.20Q274.50-23.90 275.35-19.65Q276.20-15.40 278.10-12.40Q280-9.40 282.90-7.75Q285.80-6.10 290-6.10M382.50-62.50L359.20-62.50L359.20 0L350.80 0L350.80-62.50L327.50-62.50L327.50-69.80L382.50-69.80L382.50-62.50M447.50-62.50L424.20-62.50L424.20 0L415.80 0L415.80-62.50L392.50-62.50L392.50-69.80L447.50-69.80L447.50-62.50M563.60 0L563.60-31.70L536.40-31.70L536.40 0L528 0L528-69.80L536.40-69.80L536.40-39L563.60-39L563.60-69.80L572-69.80L572 0L563.60 0M642 0L633.10 0L627.20-19.90L602.70-19.90L596.80 0L588.10 0L609.50-69.80L620.60-69.80L642 0M625.20-27.20L615.40-60.90L614.50-60.90L604.70-27.20L625.20-27.20M667.40-29.80L667.40 0L659 0L659-69.80L684.40-69.80Q694.10-69.80 699.20-64.50Q704.30-59.20 704.30-49.70Q704.30-41.20 699.90-36.10Q695.50-31 687.10-30.20L704.90 0L695.50 0L678.50-29.80L667.40-29.80M667.40-36.90L684.20-36.90Q689.50-36.90 692.45-39.55Q695.40-42.20 695.40-47.10L695.40-52.30Q695.40-57.20 692.45-59.85Q689.50-62.50 684.20-62.50L667.40-62.50L667.40-36.90M772.50-62.50L749.20-62.50L749.20 0L740.80 0L740.80-62.50L717.50-62.50L717.50-69.80L772.50-69.80L772.50-62.50M825.50 0L825.50-35L825.50-57.10L824.70-57.10L810-21.20L795.30-57.10L794.50-57.10L794.50-35L794.50 0L786.80 0L786.80-69.80L797.60-69.80L809.90-39L810.50-39L822.80-69.80L833.20-69.80L833.20 0L825.50 0M902 0L893.10 0L887.20-19.90L862.70-19.90L856.80 0L848.10 0L869.50-69.80L880.60-69.80L902 0M885.20-27.20L875.40-60.90L874.50-60.90L864.70-27.20L885.20-27.20M950.10 0L926.30-58.80L925.60-58.80L925.60 0L918 0L918-69.80L929.90-69.80L953.70-11L954.40-11L954.40-69.80L962-69.80L962 0L950.10 0M1070-23.50Q1065.90-23.50 1064.25-25.20Q1062.60-26.90 1062.60-29.50L1062.60-31.30Q1062.60-33.90 1064.25-35.60Q1065.90-37.30 1070-37.30Q1074.10-37.30 1075.75-35.60Q1077.40-33.90 1077.40-31.30L1077.40-29.50Q1077.40-26.90 1075.75-25.20Q1074.10-23.50 1070-23.50M1199.80 1.20Q1190.40 1.20 1184.40-2.25Q1178.40-5.70 1174.50-11.10L1180.60-16.10Q1184.70-11 1189.25-8.50Q1193.80-6 1200.10-6Q1207.70-6 1211.70-9.50Q1215.70-13 1215.70-19.30Q1215.70-24.40 1212.80-27.25Q1209.90-30.10 1202.70-31.30L1194.90-32.60Q1189.80-33.50 1186.35-35.30Q1182.90-37.10 1180.80-39.65Q1178.70-42.20 1177.80-45.25Q1176.90-48.30 1176.90-51.60Q1176.90-61.20 1183.20-66.10Q1189.50-71 1200.20-71Q1208.60-71 1214.35-68.20Q1220.10-65.40 1223.60-60.30L1217.70-55.20Q1214.80-59 1210.70-61.40Q1206.60-63.80 1200.10-63.80Q1193-63.80 1189.20-60.80Q1185.40-57.80 1185.40-51.80Q1185.40-47.10 1188.25-44.15Q1191.10-41.20 1198.50-39.90L1206-38.60Q1211.10-37.70 1214.60-35.90Q1218.10-34.10 1220.25-31.60Q1222.40-29.10 1223.30-26Q1224.20-22.90 1224.20-19.50Q1224.20-9.80 1217.85-4.30Q1211.50 1.20 1199.80 1.20M1283 0L1261.90-34.20L1251.90-22.40L1251.90 0L1243.50 0L1243.50-69.80L1251.90-69.80L1251.90-33.40L1252.20-33.40L1261.40-45L1282-69.80L1292.10-69.80L1267.60-40.40L1292.80 0L1283 0M1352 0L1309 0L1309-69.80L1352-69.80L1352-62.50L1317.40-62.50L1317.40-39L1350.80-39L1350.80-31.70L1317.40-31.70L1317.40-7.30L1352-7.30L1352 0M1418.50 0L1377 0L1377-69.80L1385.40-69.80L1385.40-7.30L1418.50-7.30L1418.50 0M1482 0L1439 0L1439-69.80L1482-69.80L1482-62.50L1447.40-62.50L1447.40-39L1480.80-39L1480.80-31.70L1447.40-31.70L1447.40-7.30L1482-7.30L1482 0M1552.50-62.50L1529.20-62.50L1529.20 0L1520.80 0L1520.80-62.50L1497.50-62.50L1497.50-69.80L1552.50-69.80L1552.50-62.50M1617 0L1608.10 0L1602.20-19.90L1577.70-19.90L1571.80 0L1563.10 0L1584.50-69.80L1595.60-69.80L1617 0M1600.20-27.20L1590.40-60.90L1589.50-60.90L1579.70-27.20L1600.20-27.20M1678.50 0L1637 0L1637-69.80L1645.40-69.80L1645.40-7.30L1678.50-7.30L1678.50 0M1699.50 0L1699.50-69.80L1719-69.80Q1731.80-69.80 1738.10-61Q1744.40-52.20 1744.40-34.90Q1744.40-17.60 1738.10-8.80Q1731.80 0 1719 0L1699.50 0M1707.90-7.30L1718.60-7.30Q1727-7.30 1731.25-13.10Q1735.50-18.90 1735.50-29.50L1735.50-40.30Q1735.50-50.90 1731.25-56.70Q1727-62.50 1718.60-62.50L1707.90-62.50L1707.90-7.30M1772.40-29.80L1772.40 0L1764 0L1764-69.80L1789.40-69.80Q1799.10-69.80 1804.20-64.50Q1809.30-59.20 1809.30-49.70Q1809.30-41.20 1804.90-36.10Q1800.50-31 1792.10-30.20L1809.90 0L1800.50 0L1783.50-29.80L1772.40-29.80M1772.40-36.90L1789.20-36.90Q1794.50-36.90 1797.45-39.55Q1800.40-42.20 1800.40-47.10L1800.40-52.30Q1800.40-57.20 1797.45-59.85Q1794.50-62.50 1789.20-62.50L1772.40-62.50L1772.40-36.90M1877 0L1868.10 0L1862.20-19.90L1837.70-19.90L1831.80 0L1823.10 0L1844.50-69.80L1855.60-69.80L1877 0M1860.20-27.20L1850.40-60.90L1849.50-60.90L1839.70-27.20L1860.20-27.20M1906.10 0L1894 0L1888.50-69.80L1896-69.80L1898.90-29.80L1900.40-8.70L1901.20-8.70L1910.40-51.60L1919.80-51.60L1929-8.70L1929.80-8.70L1931.30-29.80L1934.20-69.80L1941.50-69.80L1936 0L1923.90 0L1915.40-41.70L1914.60-41.70L1906.10 0M2001.60 0L1958.40 0L1958.40-6.70L1975.80-6.70L1975.80-63.10L1958.40-63.10L1958.40-69.80L2001.60-69.80L2001.60-63.10L1984.20-63.10L1984.20-6.70L2001.60-6.70L2001.60 0M2055.10 0L2031.30-58.80L2030.60-58.80L2030.60 0L2023 0L2023-69.80L2034.90-69.80L2058.70-11L2059.40-11L2059.40-69.80L2067-69.80L2067 0L2055.10 0M2124.40 0L2124.40-9.30L2123.90-9.30Q2123-7.30 2121.80-5.40Q2120.60-3.50 2118.75-2.05Q2116.90-0.60 2114.30 0.30Q2111.70 1.20 2108.10 1.20Q2096.70 1.20 2091.15-8Q2085.60-17.20 2085.60-34.40Q2085.60-52.40 2091.70-61.70Q2097.80-71 2110.50-71Q2115.40-71 2119-69.70Q2122.60-68.40 2125.15-66.20Q2127.70-64 2129.40-61.25Q2131.10-58.50 2132.20-55.70L2125-52.40Q2124.10-54.70 2122.95-56.75Q2121.80-58.80 2120.15-60.35Q2118.50-61.90 2116.20-62.80Q2113.90-63.70 2110.80-63.70Q2102.40-63.70 2098.45-57.40Q2094.50-51.10 2094.50-40.60L2094.50-29.80Q2094.50-24.50 2095.30-20.15Q2096.10-15.80 2097.95-12.60Q2099.80-9.40 2102.75-7.65Q2105.70-5.90 2110-5.90Q2116.80-5.90 2120.60-10Q2124.40-14.10 2124.40-20.60L2124.40-27.80L2109.70-27.80L2109.70-34.50L2132.20-34.50L2132.20 0L2124.40 0M2175 0.90Q2170.90 0.90 2169.25-0.80Q2167.60-2.50 2167.60-5.10L2167.60-6.90Q2167.60-9.50 2169.25-11.20Q2170.90-12.90 2175-12.90Q2179.10-12.90 2180.75-11.20Q2182.40-9.50 2182.40-6.90L2182.40-5.10Q2182.40-2.50 2180.75-0.80Q2179.10 0.90 2175 0.90M2242.30 1.20Q2229.50 1.20 2223.25-8.10Q2217-17.40 2217-34.90Q2217-52.40 2223.25-61.70Q2229.50-71 2242.30-71Q2247.10-71 2250.60-69.70Q2254.10-68.40 2256.60-66.20Q2259.10-64 2260.80-61.25Q2262.50-58.50 2263.80-55.70L2256.60-52.40Q2255.70-54.70 2254.50-56.75Q2253.30-58.80 2251.65-60.35Q2250-61.90 2247.75-62.80Q2245.50-63.70 2242.30-63.70Q2234-63.70 2229.95-57.40Q2225.90-51.10 2225.90-40.60L2225.90-29.20Q2225.90-18.70 2229.95-12.40Q2234-6.10 2242.30-6.10Q2245.50-6.10 2247.75-7Q2250-7.90 2251.65-9.45Q2253.30-11 2254.50-13.05Q2255.70-15.10 2256.60-17.40L2263.80-14.10Q2262.50-11.20 2260.80-8.50Q2259.10-5.80 2256.60-3.60Q2254.10-1.40 2250.60-0.10Q2247.10 1.20 2242.30 1.20M2305 1.20Q2298.60 1.20 2294-1.25Q2289.40-3.70 2286.40-8.30Q2283.40-12.90 2282-19.60Q2280.60-26.30 2280.60-34.90Q2280.60-43.40 2282-50.15Q2283.40-56.90 2286.40-61.50Q2289.40-66.10 2294-68.55Q2298.60-71 2305-71Q2311.40-71 2316-68.55Q2320.60-66.10 2323.60-61.50Q2326.60-56.90 2328-50.15Q2329.40-43.40 2329.40-34.90Q2329.40-26.30 2328-19.60Q2326.60-12.90 2323.60-8.30Q2320.60-3.70 2316-1.25Q2311.40 1.20 2305 1.20M2305-6.10Q2309.20-6.10 2312.10-7.75Q2315-9.40 2316.90-12.40Q2318.80-15.40 2319.65-19.65Q2320.50-23.90 2320.50-29.20L2320.50-40.60Q2320.50-45.80 2319.65-50.10Q2318.80-54.40 2316.90-57.40Q2315-60.40 2312.10-62.05Q2309.20-63.70 2305-63.70Q2300.80-63.70 2297.90-62.05Q2295-60.40 2293.10-57.40Q2291.20-54.40 2290.35-50.10Q2289.50-45.80 2289.50-40.60L2289.50-29.20Q2289.50-23.90 2290.35-19.65Q2291.20-15.40 2293.10-12.40Q2295-9.40 2297.90-7.75Q2300.80-6.10 2305-6.10M2385.50 0L2385.50-35L2385.50-57.10L2384.70-57.10L2370-21.20L2355.30-57.10L2354.50-57.10L2354.50-35L2354.50 0L2346.80 0L2346.80-69.80L2357.60-69.80L2369.90-39L2370.50-39L2382.80-69.80L2393.20-69.80L2393.20 0" fill="#5C636B"/></svg>
